<svg version="1.1" viewBox="0.0 0.0 720.0 720.0" fill="none" stroke="none" stroke-linecap="square" stroke-miterlimit="10" xmlns:xlink="http://www.w3.org/1999/xlink" xmlns="http://www.w3.org/2000/svg"><clipPath id="p.0"><path d="m0 0l720.0 0l0 720.0l-720.0 0l0 -720.0z" clip-rule="nonzero"/></clipPath><g clip-path="url(#p.0)"><path fill="#000000" fill-opacity="0.0" d="m0 0l720.0 0l0 720.0l-720.0 0z" fill-rule="evenodd"/><path fill="#000000" fill-opacity="0.0" d="m322.08044 229.65015l169.29132 9.322845" fill-rule="evenodd"/><path stroke="#000000" stroke-width="1.0" stroke-linejoin="round" stroke-linecap="butt" d="m322.08044 229.65015l169.29132 9.322845" fill-rule="evenodd"/><path fill="#000000" fill-opacity="0.0" d="m405.50937 234.02507l131.90549 106.39369" fill-rule="evenodd"/><path stroke="#000000" stroke-width="1.0" stroke-linejoin="round" stroke-linecap="butt" d="m405.50937 234.02507l131.90549 106.39369" fill-rule="evenodd"/><path fill="#000000" fill-opacity="0.0" d="m470.4312 286.61215l43.4646 164.31494" fill-rule="evenodd"/><path stroke="#000000" stroke-width="1.0" stroke-linejoin="round" stroke-linecap="butt" d="m470.4312 286.61215l43.4646 164.31494" fill-rule="evenodd"/><path fill="#000000" fill-opacity="0.0" d="m492.0481 367.32492l-61.51181 159.02365" fill-rule="evenodd"/><path stroke="#000000" stroke-width="1.0" stroke-linejoin="round" stroke-linecap="butt" d="m492.0481 367.32492l-61.51181 159.02365" fill-rule="evenodd"/><path fill="#000000" fill-opacity="0.0" d="m462.10306 445.33386l-142.20471 91.62201" fill-rule="evenodd"/><path stroke="#000000" stroke-width="1.0" stroke-linejoin="round" stroke-linecap="butt" d="m462.10306 445.33386l-142.20471 91.62201" fill-rule="evenodd"/><path fill="#000000" fill-opacity="0.0" d="m392.0341 490.8422l-169.29134 -9.322845" fill-rule="evenodd"/><path stroke="#000000" stroke-width="1.0" stroke-linejoin="round" stroke-linecap="butt" d="m392.0341 490.8422l-169.29134 -9.322845" fill-rule="evenodd"/><path fill="#000000" fill-opacity="0.0" d="m308.60516 486.46725l-131.9055 -106.39368" fill-rule="evenodd"/><path stroke="#000000" stroke-width="1.0" stroke-linejoin="round" stroke-linecap="butt" d="m308.60516 486.46725l-131.9055 -106.39368" fill-rule="evenodd"/><path fill="#000000" fill-opacity="0.0" d="m243.68329 433.8802l-43.464554 -164.31497" fill-rule="evenodd"/><path stroke="#000000" stroke-width="1.0" stroke-linejoin="round" stroke-linecap="butt" d="m243.68329 433.8802l-43.464554 -164.31497" fill-rule="evenodd"/><path fill="#000000" fill-opacity="0.0" d="m222.06642 353.16742l61.511826 -159.02364" fill-rule="evenodd"/><path stroke="#000000" stroke-width="1.0" stroke-linejoin="round" stroke-linecap="butt" d="m222.06642 353.16742l61.511826 -159.02364" fill-rule="evenodd"/><path fill="#000000" fill-opacity="0.0" d="m252.01146 275.15848l142.20473 -91.622055" fill-rule="evenodd"/><path stroke="#000000" stroke-width="1.0" stroke-linejoin="round" stroke-linecap="butt" d="m252.01146 275.15848l142.20473 -91.622055" fill-rule="evenodd"/><path fill="#000000" fill-opacity="0.0" d="m394.18372 183.67412l113.41733 5.669281" fill-rule="evenodd"/><path stroke="#000000" stroke-width="1.0" stroke-linejoin="round" stroke-linecap="butt" d="m394.18372 183.67412l113.41733 5.669281" fill-rule="evenodd"/><path fill="#000000" fill-opacity="0.0" d="m490.63492 238.5145l93.95273 76.22046" fill-rule="evenodd"/><path stroke="#000000" stroke-width="1.0" stroke-linejoin="round" stroke-linecap="butt" d="m490.63492 238.5145l93.95273 76.22046" fill-rule="evenodd"/><path fill="#000000" fill-opacity="0.0" d="m537.3695 340.20847l28.913391 109.66931" fill-rule="evenodd"/><path stroke="#000000" stroke-width="1.0" stroke-linejoin="round" stroke-linecap="butt" d="m537.3695 340.20847l28.913391 109.66931" fill-rule="evenodd"/><path fill="#000000" fill-opacity="0.0" d="m513.76074 450.7245l-40.97638 105.41736" fill-rule="evenodd"/><path stroke="#000000" stroke-width="1.0" stroke-linejoin="round" stroke-linecap="butt" d="m513.76074 450.7245l-40.97638 105.41736" fill-rule="evenodd"/><path fill="#000000" fill-opacity="0.0" d="m430.29596 525.8243l-94.834656 61.07086" fill-rule="evenodd"/><path stroke="#000000" stroke-width="1.0" stroke-linejoin="round" stroke-linecap="butt" d="m430.29596 525.8243l-94.834656 61.07086" fill-rule="evenodd"/><path fill="#000000" fill-opacity="0.0" d="m319.8491 537.01276l-113.41731 -5.6693115" fill-rule="evenodd"/><path stroke="#000000" stroke-width="1.0" stroke-linejoin="round" stroke-linecap="butt" d="m319.8491 537.01276l-113.41731 -5.6693115" fill-rule="evenodd"/><path fill="#000000" fill-opacity="0.0" d="m222.76385 481.5407l-87.40158 -70.897644" fill-rule="evenodd"/><path stroke="#000000" stroke-width="1.0" stroke-linejoin="round" stroke-linecap="butt" d="m222.76385 481.5407l-87.40158 -70.897644" fill-rule="evenodd"/><path fill="#000000" fill-opacity="0.0" d="m176.66292 380.08957l-28.755905 -109.63782" fill-rule="evenodd"/><path stroke="#000000" stroke-width="1.0" stroke-linejoin="round" stroke-linecap="butt" d="m176.66292 380.08957l-28.755905 -109.63782" fill-rule="evenodd"/><path fill="#000000" fill-opacity="0.0" d="m200.23482 269.55423l40.97638 -105.41733" fill-rule="evenodd"/><path stroke="#000000" stroke-width="1.0" stroke-linejoin="round" stroke-linecap="butt" d="m200.23482 269.55423l40.97638 -105.41733" fill-rule="evenodd"/><path fill="#000000" fill-opacity="0.0" d="m283.59714 194.17574l92.0 -61.16536" fill-rule="evenodd"/><path stroke="#000000" stroke-width="1.0" stroke-linejoin="round" stroke-linecap="butt" d="m283.59714 194.17574l92.0 -61.16536" fill-rule="evenodd"/><path fill="#000000" fill-opacity="0.0" d="m566.2897 448.97018l-18.70868 50.204712" fill-rule="evenodd"/><path stroke="#000000" stroke-width="1.0" stroke-linejoin="round" stroke-linecap="butt" d="m566.2897 448.97018l-18.70868 50.204712" fill-rule="evenodd"/><path fill="#000000" fill-opacity="0.0" d="m584.62317 314.74368l13.385864 53.039368" fill-rule="evenodd"/><path stroke="#000000" stroke-width="1.0" stroke-linejoin="round" stroke-linecap="butt" d="m584.62317 314.74368l13.385864 53.039368" fill-rule="evenodd"/><path fill="#000000" fill-opacity="0.0" d="m472.74146 556.1248l-45.039368 28.97638" fill-rule="evenodd"/><path stroke="#000000" stroke-width="1.0" stroke-linejoin="round" stroke-linecap="butt" d="m472.74146 556.1248l-45.039368 28.97638" fill-rule="evenodd"/><path fill="#000000" fill-opacity="0.0" d="m335.4665 586.83594l-54.48819 -1.9841919" fill-rule="evenodd"/><path stroke="#000000" stroke-width="1.0" stroke-linejoin="round" stroke-linecap="butt" d="m335.4665 586.83594l-54.48819 -1.9841919" fill-rule="evenodd"/><path fill="#000000" fill-opacity="0.0" d="m206.42612 531.38495l-42.83464 -33.700775" fill-rule="evenodd"/><path stroke="#000000" stroke-width="1.0" stroke-linejoin="round" stroke-linecap="butt" d="m206.42612 531.38495l-42.83464 -33.700775" fill-rule="evenodd"/><path fill="#000000" fill-opacity="0.0" d="m135.37675 410.66016l-13.3858185 -53.039368" fill-rule="evenodd"/><path stroke="#000000" stroke-width="1.0" stroke-linejoin="round" stroke-linecap="butt" d="m135.37675 410.66016l-13.3858185 -53.039368" fill-rule="evenodd"/><path fill="#000000" fill-opacity="0.0" d="m147.90483 271.52454l18.708649 -50.204712" fill-rule="evenodd"/><path stroke="#000000" stroke-width="1.0" stroke-linejoin="round" stroke-linecap="butt" d="m147.90483 271.52454l18.708649 -50.204712" fill-rule="evenodd"/><path fill="#000000" fill-opacity="0.0" d="m241.25063 164.1913l45.039352 -28.97638" fill-rule="evenodd"/><path stroke="#000000" stroke-width="1.0" stroke-linejoin="round" stroke-linecap="butt" d="m241.25063 164.1913l45.039352 -28.97638" fill-rule="evenodd"/><path fill="#000000" fill-opacity="0.0" d="m375.1739 132.94186l54.173218 1.9527588" fill-rule="evenodd"/><path stroke="#000000" stroke-width="1.0" stroke-linejoin="round" stroke-linecap="butt" d="m375.1739 132.94186l54.173218 1.9527588" fill-rule="evenodd"/><path fill="#000000" fill-opacity="0.0" d="m507.60907 189.3043l42.834656 33.70079" fill-rule="evenodd"/><path stroke="#000000" stroke-width="1.0" stroke-linejoin="round" stroke-linecap="butt" d="m507.60907 189.3043l42.834656 33.70079" fill-rule="evenodd"/><path fill="#000000" fill-opacity="0.0" d="m429.22314 134.61201l79.46457 55.338577" fill-rule="evenodd"/><path stroke="#000000" stroke-width="1.0" stroke-linejoin="round" stroke-linecap="butt" d="m429.22314 134.61201l79.46457 55.338577" fill-rule="evenodd"/><path fill="#000000" fill-opacity="0.0" d="m550.2078 222.59877l34.740173 93.574814" fill-rule="evenodd"/><path stroke="#000000" stroke-width="1.0" stroke-linejoin="round" stroke-linecap="butt" d="m550.2078 222.59877l34.740173 93.574814" fill-rule="evenodd"/><path fill="#000000" fill-opacity="0.0" d="m598.4643 367.07144l-32.188965 81.51181" fill-rule="evenodd"/><path stroke="#000000" stroke-width="1.0" stroke-linejoin="round" stroke-linecap="butt" d="m598.4643 367.07144l-32.188965 81.51181" fill-rule="evenodd"/><path fill="#000000" fill-opacity="0.0" d="m548.0392 498.7445l-75.27557 56.91339" fill-rule="evenodd"/><path stroke="#000000" stroke-width="1.0" stroke-linejoin="round" stroke-linecap="butt" d="m548.0392 498.7445l-75.27557 56.91339" fill-rule="evenodd"/><path fill="#000000" fill-opacity="0.0" d="m429.06247 584.6879l-94.20474 2.015747" fill-rule="evenodd"/><path stroke="#000000" stroke-width="1.0" stroke-linejoin="round" stroke-linecap="butt" d="m429.06247 584.6879l-94.20474 2.015747" fill-rule="evenodd"/><path fill="#000000" fill-opacity="0.0" d="m281.28647 584.8274l-74.4252 -53.763794" fill-rule="evenodd"/><path stroke="#000000" stroke-width="1.0" stroke-linejoin="round" stroke-linecap="butt" d="m281.28647 584.8274l-74.4252 -53.763794" fill-rule="evenodd"/><path fill="#000000" fill-opacity="0.0" d="m163.96529 498.42215l-28.440933 -88.0" fill-rule="evenodd"/><path stroke="#000000" stroke-width="1.0" stroke-linejoin="round" stroke-linecap="butt" d="m163.96529 498.42215l-28.440933 -88.0" fill-rule="evenodd"/><path fill="#000000" fill-opacity="0.0" d="m122.09456 358.23077l25.795273 -87.68503" fill-rule="evenodd"/><path stroke="#000000" stroke-width="1.0" stroke-linejoin="round" stroke-linecap="butt" d="m122.09456 358.23077l25.795273 -87.68503" fill-rule="evenodd"/><path fill="#000000" fill-opacity="0.0" d="m166.1242 222.28178l75.3071 -57.826767" fill-rule="evenodd"/><path stroke="#000000" stroke-width="1.0" stroke-linejoin="round" stroke-linecap="butt" d="m166.1242 222.28178l75.3071 -57.826767" fill-rule="evenodd"/><path fill="#000000" fill-opacity="0.0" d="m285.74307 135.73482l90.20474 -2.5196838" fill-rule="evenodd"/><path stroke="#000000" stroke-width="1.0" stroke-linejoin="round" stroke-linecap="butt" d="m285.74307 135.73482l90.20474 -2.5196838" fill-rule="evenodd"/></g></svg>